<svg id="trophy" xmlns="http://www.w3.org/2000/svg" viewBox="0 0 135 180"><defs><style>.cls-1{fill:#999;}.cls-2{fill:#fff;}</style></defs><title>Untitled-1</title><g id="shadow"><polygon points="27 63 27 45 108 45 108 63 117 63 117 54 135 54 135 99 126 99 126 108 117 108 117 126 108 126 108 135 99 135 99 144 90 144 90 144 90 144 90 153 99 153 99 162 108 162 108 180 27 180 27 162 36 162 36 153 45 153 45 144 45 144 45 144 36 144 36 135 27 135 27 126 18 126 18 108 9 108 9 99 0 99 0 54 18 54 18 63 27 63"/><polygon points="54 45 54 36 45 36 45 0 63 0 63 9 72 9 72 18 81 18 81 27 90 27 90 36 81 36 81 46 54 45"/></g><g id="silver"><polygon class="cls-1" points="9 99 9 63 18 63 18 72 36 72 36 81 45 81 45 63 99 63 99 72 117 72 117 63 126 63 126 99 126 99 108 99 108 108 108 117 108 117 99 117 99 135 90 135 90 144 81 144 72 144 72 144 72 153 72 162 99 162 99 171 36 171 36 162 63 162 63 153 63 144 63 144 45 144 45 135 36 135 36 117 27 117 27 99 9 99"/><polygon class="cls-1" points="63 55 63 36 54 36 54 9 63 9 63 18 72 18 72 27 81 27 81 36 72 36 72 55 63 55"/></g><g id="handles"><polygon points="36 99 36 81 18 81 18 90 27 90 27 99 36 99"/><polygon points="99 99 99 81 117 81 117 90 108 90 108 99 99 99"/></g><g id="highlights"><polygon class="cls-2" points="99 54 36 54 36 81 45 81 45 63 99 63 99 54"/><rect class="cls-2" x="36" y="90" width="9" height="9"/><rect class="cls-2" x="54" y="27" width="9" height="9"/></g></svg>